<svg width="600" height="450" viewBox="0 0 800 600" fill="none" xmlns="http://www.w3.org/2000/svg" data-reactroot="">
<g clip-path="url(#clip0)">
<path opacity="0.15" d="M65.2649 238.289C69.0925 247.822 74.6534 257.644 75.9533 265.154C79.5642 285.665 79.9253 308.197 74.5089 328.635C72.4146 336.579 68.3703 343.295 68.5148 351.673C68.6592 365.322 75.9533 383.016 82.0197 394.86C86.5695 403.815 95.9579 427.575 104.985 432.269C118.418 439.202 684.975 487.011 676.742 432.847C672.77 406.776 698.48 326.902 686.708 304.658C682.736 297.147 678.548 286.892 684.975 279.454C691.258 272.16 705.63 273.749 713.357 268.26C728.595 257.499 730.69 237.35 719.785 223.556C710.613 212.001 697.036 215.035 684.253 214.168C650.021 211.857 627.706 164.987 614.128 138.121C612.106 134.149 606.184 116.889 601.273 115.445C596.29 114 597.518 118.55 593.907 119.345C581.341 122.017 577.297 120.211 566.392 110.606C548.193 94.5735 522.772 79.1909 497.784 77.4576C446.869 73.9189 405.127 103.24 359.124 118.839C332.041 128.011 304.382 127.578 276.361 126.061C267.55 125.555 245.307 127.794 239.746 120.789C217.575 150.904 179.01 148.088 146.15 148.81C134.595 149.099 118.635 147.077 108.38 152.637C100.291 156.971 94.2969 168.381 88.8083 175.603C78.9143 188.458 67.4315 202.902 62.3762 218.212C60.4262 223.918 62.3039 230.995 65.2649 238.289Z" fill="#B0C1E1" stroke="#293449" stroke-width="1"></path>
<path d="M645.832 513.01C671.614 516.765 635.216 513.371 611.023 514.382C595.496 515.032 580.113 512.504 564.586 512.649C561.553 512.649 550.576 515.104 548.265 511.349C556.57 508.532 566.608 508.099 575.419 507.521C593.401 506.293 602.212 509.832 620.122 508.532C623.3 508.315 644.677 505.716 646.771 509.182C647.999 511.06 646.843 512.649 645.832 513.01Z" fill="#B0C1E1" stroke="#293449" stroke-width="1"></path>
<path opacity="0.11" d="M274.339 530.414C277.011 527.887 278.888 529.187 281.922 529.331C291.238 529.837 300.482 529.836 309.798 529.836C330.669 529.909 351.179 525.07 372.051 524.203C392.2 523.337 412.204 522.47 432.426 522.542C445.281 522.542 461.169 524.203 473.518 520.448C472.94 516.693 467.813 516.548 466.007 515.682C474.313 515.682 482.401 515.898 490.562 513.948C497.423 512.287 496.556 511.71 491.717 508.965C482.401 503.693 471.713 502.61 460.735 502.104C439.648 501.166 418.56 503.116 397.472 501.888C377.467 500.732 356.379 500.371 336.447 501.527C336.086 503.982 337.602 506.004 339.913 506.582C329.803 506.799 319.909 509.11 310.087 511.348C300.554 513.515 289.216 513.371 280.549 517.487C271.378 521.82 260.906 524.781 250.362 525.72C250.145 526.298 250.001 526.659 249.712 527.237C255.056 533.52 272.533 528.898 274.339 530.414Z" fill="#B0C1E1" stroke="#293449" stroke-width="1"></path>
<path d="M361.651 215.251C360.423 215.251 359.268 215.324 358.257 215.685C358.185 251.722 362.157 286.676 369.017 320.258C377.395 361.422 394.366 496.977 391.622 516.765C393.789 516.549 395.811 516.476 397.761 516.476C399.71 516.476 401.733 516.621 403.755 516.765C401.227 504.777 401.516 486.794 399.927 474.445C397.327 453.574 393.5 432.919 391.116 411.976C387.65 381.138 375.878 276.493 372.701 255.044C370.823 242.406 366.923 228.54 367.645 215.685C365.768 215.54 363.601 215.251 361.651 215.251Z" fill="#B0C1E1" stroke="#293449" stroke-width="1"></path>
<path d="M364.973 223.34H367.645L367.501 220.018L363.745 220.668L364.973 223.34Z" fill="#353535" stroke="#293449" stroke-width="1"></path>
<path opacity="0.53" d="M505.15 122.956C509.556 124.039 513.528 129.744 516.489 132.777C522.122 138.627 525.949 146.788 528.477 154.299C532.16 165.348 532.305 180.37 527.466 190.769C524.288 197.63 519.089 204.563 512.372 207.524" fill="#B0C1E1" stroke="#293449" stroke-width="1"></path>
<path d="M421.087 467.006C434.664 467.151 448.241 467.512 461.602 468.162C499.372 470.04 534.109 470.328 571.591 467.367C592.896 465.706 616.656 465.634 638.177 466.862C658.831 468.017 676.236 475.023 697.18 475.095C706.713 475.095 715.957 473.145 725.345 474.012" stroke="#293449" stroke-width="1" stroke-miterlimit="10" stroke-linecap="round"></path>
<path d="M119.862 458.412C141.095 453.79 162.11 446.207 184.137 446.207C196.053 446.207 208.114 449.746 219.813 451.407C238.59 454.079 257.584 455.09 276.505 455.595" stroke="#293449" stroke-width="1" stroke-miterlimit="10" stroke-linecap="round"></path>
<path d="M329.298 412.77L387.434 407.498" stroke="#293449" stroke-width="1" stroke-miterlimit="10" stroke-linecap="round"></path>
<path d="M365.19 216.84C364.973 250.422 356.307 281.548 349.663 313.325C349.157 315.636 348.724 317.874 348.219 320.185C347.641 322.857 347.135 325.457 346.63 328.129C346.124 330.802 345.619 333.546 345.113 336.29C344.247 341.201 343.452 346.112 342.73 351.095C338.036 382.582 335.725 414.792 332.692 446.28C330.814 466.14 321.425 496.688 323.953 516.476C319.62 516.043 315.937 516.043 311.82 516.404C314.492 504.416 314.348 486.505 316.009 474.084C318.826 453.213 322.798 432.63 325.325 411.687C327.781 391.682 329.081 371.605 330.886 351.528C331.319 346.762 331.753 342.068 332.258 337.301C332.547 334.412 332.908 331.452 333.197 328.563C333.558 325.385 333.992 322.207 334.353 319.102C334.569 317.585 334.786 316.069 335.003 314.625C337.891 294.62 341.936 274.904 345.113 254.972C347.135 242.333 354.357 225.362 353.779 212.507C356.74 212.218 362.59 215.974 365.19 216.84Z" fill="#FF7373" stroke="#293449" stroke-width="1"></path>
<path d="M402.454 210.341C396.966 210.629 391.26 210.991 385.772 210.557C381.078 210.196 348.507 213.807 343.74 213.952C338.757 214.096 333.558 215.757 328.647 215.251C327.78 209.546 325.83 203.552 324.891 197.558C323.952 191.347 325.252 180.659 322.941 176.109C331.969 174.953 368.873 165.637 377.828 163.109C382.016 161.882 389.022 157.621 395.088 155.671C395.377 160.365 396.46 165.565 396.821 169.32C397.399 176.759 397.616 184.197 399.566 191.419C399.999 192.936 400.36 194.38 400.721 195.825C401.516 200.663 402.166 205.43 402.454 210.341Z" fill="#2249B3" stroke="#293449" stroke-width="1" stroke-miterlimit="10"></path>
<path d="M501.972 209.546C489.912 210.702 449.325 214.674 436.036 214.962C431.053 215.107 406.86 220.379 404.549 217.273C404.332 214.746 404.043 212.29 403.682 209.907C402.96 205.141 401.949 200.446 400.721 195.752C400.36 194.308 399.999 192.863 399.566 191.347C397.616 184.125 397.399 176.686 396.821 169.248C396.533 165.493 395.449 160.221 395.088 155.599C395.088 155.382 395.088 155.165 395.016 154.876C394.872 152.493 395.016 150.182 395.521 148.449C404.332 144.405 415.887 143.971 425.203 141.227C431.92 139.277 463.046 132.777 469.907 131.044C476.912 129.311 483.195 127.722 490.273 127.072C491.717 126.928 491.934 126.133 493.089 125.267C496.772 131.622 495.978 143.61 496.628 151.193C497.495 161.52 498.145 171.848 498.65 182.247C499.083 190.191 499.228 202.324 501.972 209.546Z" fill="#2249B3" stroke="#293449" stroke-width="1" stroke-miterlimit="10"></path>
<path d="M328.214 209.474C325.686 209.69 312.326 211.207 307.632 211.713C302.721 212.218 278.022 213.59 262.928 214.673C257.656 215.035 253.612 215.468 251.879 215.757C247.907 216.479 243.357 219.44 239.962 217.49C239.385 217.201 238.879 216.335 238.446 215.251C238.374 215.107 238.374 215.035 238.374 215.035C237.218 212.001 236.785 207.307 238.59 206.513C248.773 202.035 294.415 193.008 304.309 188.169C310.881 184.919 318.103 183.33 324.386 179.431C326.12 179.72 328.503 205.285 328.214 209.474Z" fill="#FF7373" stroke="#293449" stroke-width="1"></path>
<path d="M347.063 160.004C346.558 175.603 348.219 206.224 352.624 221.101C355.152 221.029 371.473 221.462 368.729 218.573C368.801 198.424 366.057 177.697 365.118 157.621C360.063 158.704 352.407 159.787 347.063 160.004Z" fill="#FF7373" stroke="#293449" stroke-width="1"></path>
<path opacity="0.2" d="M238.518 215.468C238.662 215.757 238.879 216.19 239.168 216.695C238.951 216.334 238.734 215.973 238.518 215.468Z" fill="#353535" stroke="#293449" stroke-width="1"></path>
<path opacity="0.2" d="M400.721 195.752L378.117 201.096C375.806 201.602 373.423 200.663 372.195 198.641L367.645 166.576L365.623 167.298L368.584 211.712L402.455 210.413L400.721 195.752Z" fill="black" stroke="#293449" stroke-width="1"></path>
<path opacity="0.2" d="M348.001 191.203L350.746 213.302L328.574 215.179L327.347 206.224C327.347 206.224 341.574 205.43 343.813 202.541C346.051 199.652 348.001 191.203 348.001 191.203Z" fill="black" stroke="#293449" stroke-width="1"></path>
<path opacity="0.2" d="M485.146 127.794L482.763 187.664C482.113 191.564 479.079 194.525 475.18 195.03L402.527 204.635L404.549 217.274C404.549 217.274 424.049 217.924 454.886 213.807C485.723 209.691 501.973 209.546 501.973 209.546L497.351 158.199L485.146 127.794Z" fill="black" stroke="#293449" stroke-width="1"></path>
<path d="M617.667 502.971C614.995 462.24 616.295 423.025 634.206 385.327C644.244 364.167 653.56 342.645 665.476 322.496C668.654 317.08 686.709 292.742 696.242 301.481C701.152 305.958 694.508 320.33 692.558 324.518C685.048 340.262 676.02 355.284 669.665 371.605C663.093 388.721 659.627 407.498 654.716 425.192C650.166 441.513 643.233 456.896 639.116 473.145C637.817 478.345 618.967 516.91 617.667 502.971Z" fill="#2249B3" stroke="#293449" stroke-width="1"></path>
<path d="M631.894 443.896C628.355 439.78 628.428 435.736 627.272 430.752C624.672 419.847 620.628 408.87 617.017 398.254C608.712 373.7 603.801 348.567 600.335 322.857C598.962 312.675 580.908 228.684 602.718 229.695C609.867 229.984 608.206 242.478 609.217 248.255C611.745 261.905 615.5 274.976 619.617 288.192C625.972 308.63 630.45 330.368 634.277 351.456C637.094 367.128 642.944 381.21 642.077 397.46C641.427 408.798 640.199 435.663 631.894 443.896Z" fill="#2249B3" stroke="#293449" stroke-width="1"></path>
<path d="M630.883 452.274C627.705 449.746 627.2 446.785 625.611 443.319C622.144 435.664 617.595 428.225 613.406 421.003C603.729 404.248 596.579 386.555 590.296 368.211C587.84 360.989 562.492 302.131 578.596 299.675C583.868 298.881 584.446 308.269 586.035 312.314C589.863 321.919 594.485 330.946 599.395 340.046C606.978 354.056 613.406 369.367 619.256 384.244C623.589 395.365 629.944 404.754 631.605 416.814C632.833 425.264 635.794 445.124 630.883 452.274Z" fill="#2249B3" stroke="#293449" stroke-width="1"></path>
<path d="M622.361 511.06C619.617 511.06 616.872 510.843 614.634 510.699C614.417 509.904 614.634 509.254 615.284 512.36C603.945 509.976 591.163 494.666 583.074 486.65C571.736 475.384 564.875 466.934 557.22 453.285C560.181 454.151 563.069 455.162 565.886 456.173C555.848 445.774 549.998 432.919 545.737 418.981C543.57 411.903 538.082 397.315 542.92 390.31C545.448 390.526 548.192 391.393 550.503 392.621C551.442 379.405 546.82 366.622 547.615 353.261C554.114 352.756 556.425 356.8 561.625 355.067C565.019 353.911 564.658 348.639 570.364 350.95C575.852 353.117 574.336 362.289 579.391 365.466C583.941 368.283 585.963 364.889 590.007 364.239C599.757 362.722 596.651 365.25 603.801 372.111C610.951 379.044 616.511 383.81 621.133 392.548C625.611 401.07 635.288 407.426 637.96 415.586C640.632 423.747 639.91 435.519 639.477 443.968C638.755 459.423 645.182 471.339 641.066 487.227C639.549 492.933 640.055 500.805 636.444 505.715C633.844 509.254 623.3 514.526 618.822 511.565C610.373 506.004 635.433 485.566 639.477 479.572C650.671 463.034 662.587 447.002 676.742 432.847C689.452 420.136 702.019 403.092 707.507 385.904C701.657 391.537 695.374 397.604 688.947 402.587C676.092 412.625 666.415 420.642 657.098 435.374C645.616 453.429 619.4 478.706 621.567 502.177" fill="#2249B3" stroke="#293449" stroke-width="1"></path>
<path d="M633.699 505.355C640.271 501.383 652.115 496.4 660.059 491.055C664.97 487.733 676.381 477.623 663.092 475.384C672.625 473.073 687.863 463.396 685.625 451.84C678.692 450.685 675.947 455.524 670.892 458.701C668.436 448.23 662.226 449.313 654.065 447.941C649.443 447.219 649.298 444.474 643.954 447.146C640.993 448.663 638.827 452.129 637.166 454.729C631.172 464.118 630.233 471.701 630.666 482.895C630.883 487.878 630.81 490.839 629.799 495.822C629.222 498.494 626.766 504.127 633.699 505.355Z" fill="#2249B3" stroke="#293449" stroke-width="1"></path>
<path d="M579.896 383.232C580.908 382.221 581.774 381.138 582.569 379.982C586.685 385.832 585.024 395.148 587.913 401.431C589.646 400.276 592.246 398.759 593.474 396.521C598.962 399.048 598.746 410.387 603.151 415.081C605.39 417.464 607.484 415.803 609.795 419.486C613.623 425.625 611.384 437.685 611.384 444.618" stroke="#293449" stroke-width="1" stroke-miterlimit="10" stroke-linecap="round"></path>
<path d="M646.049 411.614C649.66 385.255 658.037 354.128 669.664 330.44" stroke="#293449" stroke-width="1" stroke-miterlimit="10" stroke-linecap="round"></path>
<path d="M627.128 337.59C627.128 335.568 627.128 333.618 627.128 331.596C627.055 326.396 623.444 317.802 624.528 313.108C625.972 306.969 628.211 310.869 632.833 312.602C633.194 300.758 636.877 290.72 642.51 280.393C645.688 274.471 647.277 266.166 653.271 262.627C656.232 260.894 657.243 261.688 660.348 260.316C664.97 258.294 667.426 252.083 672.553 250.566C675.803 249.627 681.292 249.483 684.903 248.905C685.842 257.283 679.559 262.338 678.042 269.921C680.136 271.438 682.52 270.065 683.892 272.232C685.336 274.543 682.881 279.454 682.086 281.404C679.92 286.604 677.825 294.548 674.72 298.953C672.842 301.625 669.159 302.708 667.209 305.453C664.754 308.991 664.248 314.119 662.515 318.091C659.626 324.591 655.004 328.924 653.704 336.218C652.693 341.923 652.26 347.773 650.815 353.478C648.938 360.7 645.038 366.333 642.582 373.194C641.499 376.227 641.644 387.06 637.96 387.566C632.111 388.36 629.366 371.533 628.572 367.922C626.044 356.873 621.422 345.967 627.128 337.59Z" fill="#2249B3" stroke="#293449" stroke-width="1"></path>
<path d="M526.166 166.287C526.166 173.653 526.383 182.392 522.988 189.108" stroke="#293449" stroke-width="1" stroke-miterlimit="10" stroke-linecap="round"></path>
<path d="M353.202 221.101C353.202 221.101 363.962 221.245 365.19 220.667L364.901 226.951C364.612 229.189 357.462 229.262 352.263 226.445L353.202 221.101Z" fill="#353535" stroke="#293449" stroke-width="1"></path>
<path d="M599.178 495.822C596.94 491.85 585.818 488.744 582.785 493.15C581.485 495.027 586.035 506.005 590.151 508.604C596.217 512.36 608.495 512.143 611.961 513.443C615.789 514.815 620.411 513.01 624.383 512.649C630.377 511.999 636.01 513.154 641.932 513.66C644.387 513.876 647.132 513.876 649.154 512.504C650.598 511.493 651.682 509.543 652.765 508.243C655.076 505.427 657.676 502.755 660.059 500.01C661.937 497.844 666.342 494.594 666.92 491.778C659.842 490.116 654.209 490.694 647.06 490.694C633.988 490.694 619.977 487.661 607.411 492.066C604.162 493.077 600.623 494.522 599.178 495.822Z" fill="#2249B3" stroke="#293449" stroke-width="1"></path>
<path d="M609.289 489.828C611.745 486.722 619.183 480.223 623.155 481.234C622.866 488.889 627.705 483.328 631.894 481.234C637.888 478.128 638.538 484.845 644.171 483.4C646.987 482.678 645.976 482.678 648.504 483.689C651.826 484.989 654.137 484.7 657.603 484.7C662.37 484.7 665.548 487.806 665.909 492.644C666.053 494.305 665.475 495.966 665.62 497.627C665.764 499.144 666.559 500.372 666.414 501.96C666.27 504.56 664.392 506.077 664.392 508.677" stroke="#293449" stroke-width="1" stroke-miterlimit="10" stroke-linecap="round"></path>
<path d="M152.578 69.3691C138.929 69.3691 127.446 78.7576 124.268 91.3959H111.702C101.664 91.3959 93.5029 99.5566 93.5029 109.595C93.5029 119.633 101.664 127.794 111.702 127.794H179.949C189.987 127.794 198.148 119.633 198.148 109.595C198.148 99.8455 190.493 91.9014 180.888 91.3959C177.71 78.7576 166.227 69.3691 152.578 69.3691Z" fill="#2249B3" stroke="#293449" stroke-width="1"></path>
<path d="M637.744 127.794C626.406 127.794 616.873 135.594 614.201 146.138C606.184 146.571 599.829 153.143 599.829 161.304C599.829 169.681 606.618 176.47 614.995 176.47H694.219C702.597 176.47 709.385 169.681 709.385 161.304C709.385 152.927 702.597 146.138 694.219 146.138H661.287C658.615 135.594 649.155 127.794 637.744 127.794Z" fill="#2249B3" stroke="#293449" stroke-width="1"></path>
<path d="M515.116 213.374L502.983 215.107C500.167 215.54 497.495 213.518 497.061 210.702L484.784 124.978C484.351 122.161 486.373 119.489 489.189 119.056L501.322 117.323C504.139 116.889 506.811 118.912 507.244 121.728L519.521 207.38C519.882 210.341 517.933 212.94 515.116 213.374Z" fill="#FF7373" stroke="#293449" stroke-width="1"></path>
<path opacity="0.2" d="M242.129 76.3745L244.368 80.9243L249.495 81.7187L245.812 85.2574L246.679 90.3128L242.129 87.9295L237.579 90.3128L238.446 85.2574L234.763 81.7187L239.818 80.9243L242.129 76.3745Z" fill="#2249B3" stroke="#293449" stroke-width="1"></path>
<path opacity="0.2" d="M485.218 241.828L487.457 246.45L492.512 247.172L488.829 250.783L489.695 255.838L485.218 253.455L480.668 255.838L481.535 250.783L477.852 247.172L482.907 246.45L485.218 241.828Z" fill="#2249B3" stroke="#293449" stroke-width="1"></path>
<path opacity="0.2" d="M623.95 70.1636L626.261 74.7856L631.317 75.5078L627.633 79.0465L628.5 84.1018L623.95 81.7186L619.401 84.1018L620.267 79.0465L616.584 75.5078L621.712 74.7856L623.95 70.1636Z" fill="#2249B3" stroke="#293449" stroke-width="1"></path>
<path opacity="0.2" d="M400.072 70.1636L401.227 72.4746L403.755 72.8357L401.877 74.6411L402.311 77.1688L400.072 75.9411L397.833 77.1688L398.266 74.6411L396.389 72.8357L398.916 72.4746L400.072 70.1636Z" fill="#2249B3" stroke="#293449" stroke-width="1"></path>
<path opacity="0.2" d="M717.33 197.197L718.485 199.508L721.013 199.869L719.207 201.674L719.641 204.202L717.33 203.047L715.091 204.202L715.524 201.674L713.646 199.869L716.174 199.508L717.33 197.197Z" fill="#2249B3" stroke="#293449" stroke-width="1"></path>
<path opacity="0.2" d="M734.734 77.1689L735.889 79.4077L738.417 79.841L736.612 81.5743L737.045 84.102L734.734 82.9465L732.495 84.102L732.928 81.5743L731.051 79.841L733.578 79.4077L734.734 77.1689Z" fill="#2249B3" stroke="#293449" stroke-width="1"></path>
<path opacity="0.2" d="M115.962 207.524L117.118 209.835L119.646 210.196L117.768 212.001L118.201 214.529L115.962 213.301L113.651 214.529L114.085 212.001L112.279 210.196L114.807 209.835L115.962 207.524Z" fill="#2249B3" stroke="#293449" stroke-width="1"></path>
</g>
<defs>
<clipPath id="clip0">
<rect x="61.582" y="69.3691" width="676.835" height="461.262" fill="white" stroke="#293449" stroke-width="1"></rect>
</clipPath>
</defs>
</svg>
