<svg width="600" height="450" viewBox="0 0 800 600" fill="none" xmlns="http://www.w3.org/2000/svg" data-reactroot="">
<path d="M460.416 229.661C460.416 229.661 368.312 177.806 364.275 178.31C360.237 178.941 364.275 225.245 364.275 225.245L460.416 229.661Z" fill="#FF7373" stroke="#293449" stroke-width="1"></path>
<path d="M194.576 137.302V171.115C194.576 171.115 169.216 157.867 194.576 137.302Z" fill="#FF7373" stroke="#293449" stroke-width="1"></path>
<path d="M196.212 217.927V265.745C196.212 265.745 170.6 273.567 166.436 254.768C162.146 235.969 196.212 217.927 196.212 217.927Z" fill="#FF7373" stroke="#293449" stroke-width="1"></path>
<path d="M198.991 286.812V310.154C198.991 310.154 203.281 337.533 198.991 342.201C198.991 342.201 170.351 355.701 167.701 339.173C164.926 322.645 176.029 312.803 177.416 310.532C178.93 308.261 184.23 296.275 186.501 293.499C188.772 290.85 195.963 287.065 198.991 286.812Z" fill="#FF7373" stroke="#293449" stroke-width="1"></path>
<path d="M654.713 540.038L504.824 590.001C504.824 590.001 438.081 491.21 406.665 482.757C353.674 468.5 316.075 427.369 294.879 390.023C286.047 374.504 281 363.275 281 363.275L281.631 362.013L328.061 275.083L413.73 280.382L450.319 349.396L654.713 540.038Z" fill="#FF7373" stroke="#293449" stroke-width="1"></path>
<path d="M368.56 29.9338V343.338C368.56 354.315 359.602 363.273 348.625 363.273H214.255C203.278 363.273 194.32 354.315 194.32 343.338V29.9338C194.32 18.957 203.278 9.99902 214.255 9.99902H348.499C359.602 9.99902 368.56 18.957 368.56 29.9338Z" fill="#2249B3" stroke="#293449" stroke-width="1"></path>
<path d="M342.948 355.703H219.807C209.461 355.703 201.008 347.25 201.008 336.904V36.3686C201.008 26.0227 209.461 17.5693 219.807 17.5693H342.948C353.294 17.5693 361.747 26.0227 361.747 36.3686V336.904C361.747 347.376 353.294 355.703 342.948 355.703Z" fill="#B0C1E1" stroke="#293449" stroke-width="1"></path>
<path d="M317.842 31.5739H244.916C241.131 31.5739 237.977 28.4197 237.977 24.6346V16.3074C237.977 12.5223 241.131 13.1532 244.916 13.1532H317.842C321.627 13.1532 324.781 12.3962 324.781 16.3074V24.6346C324.781 28.4197 321.627 31.5739 317.842 31.5739Z" fill="#2249B3" stroke="#293449" stroke-width="1"></path>
<path d="M232.17 71.1892H217.409C215.137 71.1892 213.371 69.2966 213.371 67.1518V52.39C213.371 50.1189 215.264 48.3525 217.409 48.3525H232.17C234.441 48.3525 236.208 50.2451 236.208 52.39V67.1518C236.334 69.4228 234.441 71.1892 232.17 71.1892Z" fill="#2249B3" stroke="#293449" stroke-width="1"></path>
<path d="M266.741 71.1892H251.979C249.708 71.1892 247.941 69.2966 247.941 67.1518V52.39C247.941 50.1189 249.834 48.3525 251.979 48.3525H266.741C269.012 48.3525 270.778 50.2451 270.778 52.39V67.1518C270.778 69.4228 269.012 71.1892 266.741 71.1892Z" fill="#2249B3" stroke="#293449" stroke-width="1"></path>
<path d="M232.17 110.178H217.409C215.137 110.178 213.371 108.286 213.371 106.141V91.3792C213.371 89.1082 215.264 87.3418 217.409 87.3418H232.17C234.441 87.3418 236.208 89.2343 236.208 91.3792V106.141C236.334 108.286 234.441 110.178 232.17 110.178Z" fill="#2249B3" stroke="#293449" stroke-width="1"></path>
<path d="M266.741 110.178H251.979C249.708 110.178 247.941 108.286 247.941 106.141V91.3792C247.941 89.1082 249.834 87.3418 251.979 87.3418H266.741C269.012 87.3418 270.778 89.2343 270.778 91.3792V106.141C270.778 108.286 269.012 110.178 266.741 110.178Z" fill="#2249B3" stroke="#293449" stroke-width="1"></path>
<path d="M232.17 149.163H217.409C215.137 149.163 213.371 147.27 213.371 145.125V130.364C213.371 128.093 215.264 126.326 217.409 126.326H232.17C234.441 126.326 236.208 128.219 236.208 130.364V145.125C236.334 147.27 234.441 149.163 232.17 149.163Z" fill="#2249B3" stroke="#293449" stroke-width="1"></path>
<path d="M268.002 149.163H253.241C250.97 149.163 249.203 147.27 249.203 145.125V130.364C249.203 128.093 251.096 126.326 253.241 126.326H268.002C270.273 126.326 272.04 128.219 272.04 130.364V145.125C272.166 147.27 270.273 149.163 268.002 149.163Z" fill="white" fill-opacity="0.64" stroke="#293449" stroke-width="1"></path>
<path d="M339.791 149.163H325.03C322.759 149.163 320.992 147.27 320.992 145.125V130.364C320.992 128.093 322.885 126.326 325.03 126.326H339.791C342.062 126.326 343.829 128.219 343.829 130.364V145.125C343.829 147.27 342.062 149.163 339.791 149.163Z" fill="#2249B3" stroke="#293449" stroke-width="1"></path>
<path d="M303.959 149.163H289.198C286.927 149.163 285.16 147.27 285.16 145.125V130.364C285.16 128.093 287.053 126.326 289.198 126.326H303.959C306.23 126.326 307.997 128.219 307.997 130.364V145.125C307.997 147.27 306.23 149.163 303.959 149.163Z" fill="#2249B3" stroke="#293449" stroke-width="1"></path>
<path d="M232.17 188.024H217.409C215.137 188.024 213.371 186.131 213.371 183.986V169.224C213.371 166.953 215.264 165.187 217.409 165.187H232.17C234.441 165.187 236.208 167.08 236.208 169.224V183.986C236.334 186.257 234.441 188.024 232.17 188.024Z" fill="#2249B3" stroke="#293449" stroke-width="1"></path>
<path d="M268.002 188.024H253.241C250.97 188.024 249.203 186.131 249.203 183.986V169.224C249.203 166.953 251.096 165.187 253.241 165.187H268.002C270.273 165.187 272.04 167.08 272.04 169.224V183.986C272.166 186.257 270.273 188.024 268.002 188.024Z" fill="#2249B3" stroke="#293449" stroke-width="1"></path>
<path d="M339.791 188.024H325.03C322.759 188.024 320.992 186.131 320.992 183.986V169.224C320.992 166.953 322.885 165.187 325.03 165.187H339.791C342.062 165.187 343.829 167.08 343.829 169.224V183.986C343.829 186.257 342.062 188.024 339.791 188.024Z" fill="#2249B3" stroke="#293449" stroke-width="1"></path>
<path d="M303.959 188.024H289.198C286.927 188.024 285.16 186.131 285.16 183.986V169.224C285.16 166.953 287.053 165.187 289.198 165.187H303.959C306.23 165.187 307.997 167.08 307.997 169.224V183.986C307.997 186.257 306.23 188.024 303.959 188.024Z" fill="#2249B3" stroke="#293449" stroke-width="1"></path>
<path d="M232.17 227.008H217.409C215.137 227.008 213.371 225.115 213.371 222.971V208.209C213.371 205.938 215.264 204.171 217.409 204.171H232.17C234.441 204.171 236.208 206.064 236.208 208.209V222.971C236.334 225.115 234.441 227.008 232.17 227.008Z" fill="#2249B3" stroke="#293449" stroke-width="1"></path>
<path d="M268.002 227.008H253.241C250.97 227.008 249.203 225.115 249.203 222.971V208.209C249.203 205.938 251.096 204.171 253.241 204.171H268.002C270.273 204.171 272.04 206.064 272.04 208.209V222.971C272.166 225.115 270.273 227.008 268.002 227.008Z" fill="white" fill-opacity="0.64" stroke="#293449" stroke-width="1"></path>
<path d="M339.791 227.008H325.03C322.759 227.008 320.992 225.115 320.992 222.971V208.209C320.992 205.938 322.885 204.171 325.03 204.171H339.791C342.062 204.171 343.829 206.064 343.829 208.209V222.971C343.829 225.115 342.062 227.008 339.791 227.008Z" fill="#2249B3" stroke="#293449" stroke-width="1"></path>
<path d="M303.959 227.008H289.198C286.927 227.008 285.16 225.115 285.16 222.971V208.209C285.16 205.938 287.053 204.171 289.198 204.171H303.959C306.23 204.171 307.997 206.064 307.997 208.209V222.971C307.997 225.115 306.23 227.008 303.959 227.008Z" fill="#2249B3" stroke="#293449" stroke-width="1"></path>
<path d="M232.17 265.997H217.409C215.137 265.997 213.371 264.105 213.371 261.96V247.198C213.371 244.927 215.264 243.161 217.409 243.161H232.17C234.441 243.161 236.208 245.053 236.208 247.198V261.96C236.334 264.105 234.441 265.997 232.17 265.997Z" fill="#2249B3" stroke="#293449" stroke-width="1"></path>
<path d="M268.002 265.997H253.241C250.97 265.997 249.203 264.105 249.203 261.96V247.198C249.203 244.927 251.096 243.161 253.241 243.161H268.002C270.273 243.161 272.04 245.053 272.04 247.198V261.96C272.166 264.105 270.273 265.997 268.002 265.997Z" fill="#2249B3" stroke="#293449" stroke-width="1"></path>
<path d="M339.791 265.997H325.03C322.759 265.997 320.992 264.105 320.992 261.96V247.198C320.992 244.927 322.885 243.161 325.03 243.161H339.791C342.062 243.161 343.829 245.053 343.829 247.198V261.96C343.829 264.105 342.062 265.997 339.791 265.997Z" fill="#FF7373" stroke="#293449" stroke-width="1"></path>
<path d="M340.551 344.095H223.844C216.653 344.095 210.723 338.291 210.723 330.973V319.618C210.723 312.427 216.526 306.497 223.844 306.497H340.551C347.742 306.497 353.672 312.3 353.672 319.618V330.973C353.672 338.291 347.869 344.095 340.551 344.095Z" fill="#2249B3" stroke="#293449" stroke-width="1"></path>
<path d="M349.379 57.1874V100.59C349.379 105.763 346.099 110.305 341.431 111.945C340.169 112.45 338.781 112.702 337.393 112.702H293.991C287.43 112.702 282.131 107.529 281.879 101.094C281.879 100.968 281.879 100.842 281.879 100.716V57.1874C281.879 53.0239 284.024 49.2388 287.304 47.0939C289.197 45.8322 291.468 45.0752 293.865 45.0752H337.267C343.954 45.2014 349.379 50.5005 349.379 57.1874Z" fill="#2249B3" stroke="#293449" stroke-width="1"></path>
<path fill-rule="evenodd" clip-rule="evenodd" d="M291.341 46.6523C289.99 46.6523 288.642 46.898 287.42 47.3868L287.408 47.3918C282.867 48.9873 279.67 53.4094 279.67 58.4492V101.978C279.67 102.488 279.671 102.954 279.787 103.415L279.791 103.433L279.794 103.452C280.53 109.224 285.444 113.648 291.467 113.648H334.869C337.199 113.648 339.41 112.912 341.255 111.682L341.257 111.681C344.45 109.593 346.54 105.907 346.54 101.851V58.4492C346.54 51.9427 341.261 46.7769 334.74 46.6523H291.341ZM287.192 46.7986C288.492 46.2797 289.918 46.0215 291.341 46.0215H334.749C341.6 46.1508 347.17 51.5827 347.17 58.4492V101.851C347.17 106.123 344.971 110.006 341.603 112.208C339.663 113.501 337.332 114.279 334.869 114.279H291.467C285.132 114.279 279.955 109.628 279.17 103.55C279.039 103.013 279.039 102.482 279.039 101.993L279.039 58.4492C279.039 53.1454 282.4 48.4853 287.192 46.7986Z" fill="#FF7373" stroke="#293449" stroke-width="1"></path>
<path d="M303.959 265.997H289.198C286.927 265.997 285.16 264.105 285.16 261.96V247.198C285.16 244.927 287.053 243.161 289.198 243.161H303.959C306.23 243.161 307.997 245.053 307.997 247.198V261.96C307.997 264.105 306.23 265.997 303.959 265.997Z" fill="white" fill-opacity="0.64" stroke="#293449" stroke-width="1"></path>
<path d="M238.1 337.28H222.708C220.31 337.28 218.418 335.388 218.418 332.99V317.598C218.418 315.201 220.31 313.308 222.708 313.308H238.1C240.498 313.308 242.39 315.201 242.39 317.598V332.99C242.264 335.388 240.371 337.28 238.1 337.28Z" fill="#FF7373" stroke="#293449" stroke-width="1"></path>
<path fill-rule="evenodd" clip-rule="evenodd" d="M251.978 127.903C250.001 127.903 248.256 129.535 248.256 131.625V146.387C248.256 148.364 249.887 150.109 251.978 150.109H266.74C268.847 150.109 270.577 148.352 270.462 146.406L270.462 146.396V131.625C270.462 129.648 268.83 127.903 266.74 127.903H251.978ZM247.625 131.625C247.625 129.174 249.665 127.272 251.978 127.272H266.74C269.191 127.272 271.092 129.313 271.092 131.625V146.378C271.224 148.718 269.171 150.74 266.74 150.74H251.978C249.526 150.74 247.625 148.7 247.625 146.387V131.625Z" fill="#FF7373" stroke="#293449" stroke-width="1"></path>
<path fill-rule="evenodd" clip-rule="evenodd" d="M251.978 205.749C250.001 205.749 248.256 207.38 248.256 209.471V224.232C248.256 226.209 249.887 227.954 251.978 227.954H266.74C268.847 227.954 270.577 226.197 270.462 224.251L270.462 224.242V209.471C270.462 207.493 268.83 205.749 266.74 205.749H251.978ZM247.625 209.471C247.625 207.019 249.665 205.118 251.978 205.118H266.74C269.191 205.118 271.092 207.158 271.092 209.471V224.223C271.224 226.563 269.171 228.585 266.74 228.585H251.978C249.526 228.585 247.625 226.545 247.625 224.232V209.471Z" fill="#FF7373" stroke="#293449" stroke-width="1"></path>
<path fill-rule="evenodd" clip-rule="evenodd" d="M287.935 244.738C285.958 244.738 284.213 246.369 284.213 248.46V263.222C284.213 265.199 285.844 266.944 287.935 266.944H302.697C304.787 266.944 306.419 265.199 306.419 263.222V248.46C306.419 246.483 304.787 244.738 302.697 244.738H287.935ZM283.582 248.46C283.582 246.008 285.622 244.107 287.935 244.107H302.697C305.148 244.107 307.05 246.147 307.05 248.46V263.222C307.05 265.534 305.148 267.574 302.697 267.574H287.935C285.483 267.574 283.582 265.534 283.582 263.222V248.46Z" fill="#FF7373" stroke="#293449" stroke-width="1"></path>
<path d="M272.292 337.28H256.899C254.502 337.28 252.609 335.388 252.609 332.99V317.598C252.609 315.201 254.502 313.308 256.899 313.308H272.292C274.689 313.308 276.582 315.201 276.582 317.598V332.99C276.582 335.388 274.689 337.28 272.292 337.28Z" fill="white" fill-opacity="0.29" stroke="#293449" stroke-width="1"></path>
<path d="M340.929 337.28H325.536C323.139 337.28 321.246 335.388 321.246 332.99V317.598C321.246 315.201 323.139 313.308 325.536 313.308H340.929C343.326 313.308 345.218 315.201 345.218 317.598V332.99C345.218 335.388 343.326 337.28 340.929 337.28Z" fill="white" fill-opacity="0.29" stroke="#293449" stroke-width="1"></path>
<path d="M306.608 337.28H291.216C288.818 337.28 286.926 335.388 286.926 332.99V317.598C286.926 315.201 288.818 313.308 291.216 313.308H306.608C309.005 313.308 310.898 315.201 310.898 317.598V332.99C310.898 335.388 309.005 337.28 306.608 337.28Z" fill="white" fill-opacity="0.29" stroke="#293449" stroke-width="1"></path>
<path d="M271.154 130.993C273.593 130.993 275.57 129.016 275.57 126.578C275.57 124.139 273.593 122.162 271.154 122.162C268.715 122.162 266.738 124.139 266.738 126.578C266.738 129.016 268.715 130.993 271.154 130.993Z" fill="#FF9C7A" stroke="#293449" stroke-width="1"></path>
<path d="M270.779 210.229C273.218 210.229 275.195 208.252 275.195 205.813C275.195 203.374 273.218 201.397 270.779 201.397C268.34 201.397 266.363 203.374 266.363 205.813C266.363 208.252 268.34 210.229 270.779 210.229Z" fill="#FF9C7A" stroke="#293449" stroke-width="1"></path>
<path d="M307.998 249.593C310.437 249.593 312.414 247.616 312.414 245.177C312.414 242.738 310.437 240.761 307.998 240.761C305.559 240.761 303.582 242.738 303.582 245.177C303.582 247.616 305.559 249.593 307.998 249.593Z" fill="#FF9C7A" stroke="#293449" stroke-width="1"></path>
<path d="M240.498 317.724C242.937 317.724 244.914 315.747 244.914 313.308C244.914 310.869 242.937 308.892 240.498 308.892C238.059 308.892 236.082 310.869 236.082 313.308C236.082 315.747 238.059 317.724 240.498 317.724Z" fill="#FF9C7A" stroke="#293449" stroke-width="1"></path>
<path d="M230.152 28.4218H217.535C216.147 28.4218 215.012 27.2862 215.012 25.8984C215.012 24.5105 216.147 23.375 217.535 23.375H230.152C231.54 23.375 232.675 24.5105 232.675 25.8984C232.675 27.2862 231.54 28.4218 230.152 28.4218Z" fill="#FF7373" stroke="#293449" stroke-width="1"></path>
<path d="M346.101 28.4218H333.484C332.096 28.4218 330.961 27.2862 330.961 25.8984C330.961 24.5105 332.096 23.375 333.484 23.375H346.101C347.489 23.375 348.625 24.5105 348.625 25.8984C348.498 27.2862 347.489 28.4218 346.101 28.4218Z" fill="#FF7373" stroke="#293449" stroke-width="1"></path>
<path d="M286.929 279.245C287.181 272.684 309.008 248.333 315.695 235.59C322.256 222.847 435.177 220.702 460.537 229.66C485.897 238.618 493.72 366.428 509.365 384.344C525.01 402.26 654.712 540.037 654.712 540.037L406.663 482.882C406.663 482.882 370.074 376.017 378.275 337.914C386.476 299.81 394.677 296.025 393.92 293.88C393.163 291.609 370.831 290.474 364.523 282.778C364.523 282.778 351.78 278.109 350.266 277.478C340.046 273.693 310.018 301.324 297.022 294.007C284.279 286.689 286.802 282.904 286.929 279.245Z" fill="#FF7373" stroke="#293449" stroke-width="1"></path>
<path fill-rule="evenodd" clip-rule="evenodd" d="M433.248 221.576C421.81 220.361 409.078 221.273 398.64 225.041C397.984 225.277 397.261 224.938 397.025 224.282C396.788 223.627 397.127 222.904 397.783 222.667C408.667 218.739 421.799 217.822 433.514 219.067C445.17 220.305 455.718 223.717 461.256 228.719C463.96 231.136 466.446 235.144 468.774 240.184C471.117 245.256 473.355 251.497 475.511 258.495C479.823 272.489 483.842 289.629 487.713 306.721C488.337 309.474 488.956 312.227 489.573 314.964C492.788 329.243 495.916 343.134 499.05 354.806C500.917 361.76 502.779 367.896 504.653 372.839C506.54 377.817 508.392 381.452 510.191 383.512C517.926 392.37 538.96 410.179 558.171 425.851C567.754 433.669 576.849 440.927 583.549 446.232C586.898 448.884 589.649 451.047 591.562 452.548C592.518 453.298 593.265 453.882 593.773 454.279C594.027 454.477 594.221 454.628 594.351 454.73L594.536 454.874L594.546 454.881L594.548 454.883C594.548 454.884 594.549 454.884 593.774 455.879C592.999 456.875 592.998 456.875 592.998 456.874L592.986 456.865L592.8 456.72C592.669 456.618 592.474 456.466 592.219 456.267C591.71 455.87 590.962 455.284 590.004 454.533C588.089 453.031 585.335 450.865 581.982 448.21C575.276 442.901 566.171 435.634 556.576 427.807C537.432 412.189 516.199 394.228 508.29 385.171C506.177 382.752 504.197 378.754 502.293 373.733C500.377 368.677 498.49 362.448 496.613 355.46C493.464 343.733 490.323 329.782 487.108 315.504C486.492 312.77 485.874 310.023 485.252 307.278C481.379 290.178 477.379 273.127 473.099 259.238C470.96 252.293 468.759 246.17 466.483 241.243C464.194 236.286 461.882 232.662 459.572 230.599L459.567 230.594C454.632 226.135 444.742 222.797 433.248 221.576ZM593.774 455.879L592.998 456.874C593.548 457.302 594.341 457.204 594.769 456.654C595.197 456.104 595.098 455.311 594.548 454.883L593.774 455.879Z" fill="#2249B3" stroke="#293449" stroke-width="1"></path>
<path fill-rule="evenodd" clip-rule="evenodd" d="M363.724 281.8C364.263 281.358 365.058 281.437 365.499 281.976C366.877 283.657 369.222 285.073 372.149 286.27C375.051 287.457 378.383 288.374 381.594 289.134C383.197 289.513 384.759 289.851 386.215 290.163C386.324 290.187 386.433 290.21 386.541 290.233C387.868 290.518 389.109 290.785 390.187 291.041C391.343 291.315 392.37 291.591 393.146 291.885C393.532 292.032 393.909 292.202 394.225 292.408C394.506 292.591 394.928 292.923 395.114 293.468C395.36 294.176 395.176 294.831 394.958 295.33C394.745 295.818 394.397 296.375 394.016 296.979C393.962 297.065 393.906 297.153 393.848 297.244C393.063 298.484 391.946 300.248 390.587 302.974C387.665 308.834 383.594 319.2 379.51 338.176C376.775 350.979 376.991 366.046 380.569 379.798C384.15 393.559 391.059 405.871 401.59 413.341C402.159 413.744 402.292 414.532 401.889 415.1C401.486 415.669 400.699 415.803 400.13 415.399C388.96 407.477 381.802 394.556 378.127 380.433C374.451 366.302 374.225 350.837 377.042 337.648L377.042 337.646C381.159 318.521 385.289 307.943 388.329 301.848C389.746 299.005 390.92 297.152 391.714 295.898C391.772 295.806 391.828 295.717 391.882 295.632C392.255 295.042 392.482 294.668 392.611 294.395C392.517 294.351 392.398 294.3 392.252 294.245C391.638 294.013 390.746 293.767 389.604 293.496C388.554 293.246 387.34 292.986 386.004 292.699C385.898 292.676 385.792 292.654 385.685 292.631C384.229 292.318 382.644 291.975 381.013 291.59C377.759 290.82 374.278 289.867 371.194 288.606C368.136 287.355 365.324 285.743 363.548 283.576C363.106 283.037 363.185 282.242 363.724 281.8ZM392.894 294.557C392.894 294.557 392.889 294.553 392.88 294.545C392.891 294.553 392.895 294.557 392.894 294.557Z" fill="#2249B3" stroke="#293449" stroke-width="1"></path>
<path opacity="0.2" d="M298.915 385.48C298.41 387.247 297.022 388.887 295.004 390.149C286.172 374.63 281.125 363.401 281.125 363.401H286.676C286.929 363.527 287.181 363.527 287.56 363.653C293.994 365.798 300.681 378.541 298.915 385.48Z" fill="#1A1A1A" stroke="#293449" stroke-width="1"></path>
<path d="M220.941 363.399L236.46 363.021C236.46 363.021 256.016 356.965 261.82 358.983C267.624 360.876 273.428 360.876 279.989 363.021C286.549 365.166 293.363 377.909 291.47 384.848C289.577 391.787 273.68 395.951 253.872 388.885C237.974 383.208 220.941 363.399 220.941 363.399Z" fill="#FF7373" stroke="#293449" stroke-width="1"></path>
<path fill-rule="evenodd" clip-rule="evenodd" d="M314.787 248.543C315.159 247.971 315.924 247.809 316.497 248.181L315.823 249.217C316.497 248.181 316.497 248.182 316.498 248.182L316.5 248.183L316.504 248.186L316.515 248.193L316.548 248.215C316.575 248.233 316.611 248.259 316.656 248.291C316.745 248.354 316.869 248.446 317.019 248.564C317.318 248.801 317.724 249.149 318.172 249.605C319.063 250.514 320.144 251.88 320.853 253.686C321.567 255.509 321.89 257.751 321.285 260.355C320.682 262.947 319.18 265.825 316.365 268.967L316.362 268.97C311.614 274.231 306.482 278.337 302.111 281.166C301.538 281.537 300.772 281.373 300.402 280.8C300.031 280.227 300.195 279.462 300.768 279.091C304.975 276.369 309.936 272.4 314.525 267.316C317.134 264.403 318.391 261.888 318.877 259.796C319.36 257.716 319.099 255.984 318.552 254.589C317.998 253.178 317.14 252.084 316.407 251.336C316.042 250.965 315.715 250.685 315.484 250.502C315.369 250.411 315.278 250.344 315.219 250.302C315.19 250.282 315.169 250.267 315.157 250.259L315.146 250.252L315.147 250.252C314.576 249.88 314.415 249.115 314.787 248.543Z" fill="#2249B3" stroke="#293449" stroke-width="1"></path>
<path d="M277.594 293.627C278.57 293.627 279.361 292.837 279.361 291.861C279.361 290.886 278.57 290.095 277.594 290.095C276.619 290.095 275.828 290.886 275.828 291.861C275.828 292.837 276.619 293.627 277.594 293.627Z" fill="#FF7373" stroke="#293449" stroke-width="1"></path>
<path d="M284.282 293.627C285.258 293.627 286.048 292.837 286.048 291.861C286.048 290.886 285.258 290.095 284.282 290.095C283.306 290.095 282.516 290.886 282.516 291.861C282.516 292.837 283.306 293.627 284.282 293.627Z" fill="#B0C1E1" stroke="#293449" stroke-width="1"></path>
<path fill-rule="evenodd" clip-rule="evenodd" d="M147.262 35.1045C147.959 35.1045 148.523 35.6694 148.523 36.3662V164.806C148.523 165.503 147.959 166.068 147.262 166.068C146.565 166.068 146 165.503 146 164.806V36.3662C146 35.6694 146.565 35.1045 147.262 35.1045Z" fill="#2249B3" stroke="#293449" stroke-width="1"></path>
<path d="M349.382 80.9041V100.713C349.382 105.886 346.102 110.428 341.433 112.068C339.541 113.33 337.27 114.087 334.873 114.087H291.47C285.288 114.087 280.241 109.545 279.484 103.615L281.882 101.217L295.76 87.5911L314.559 104.876L336.513 67.2778L346.859 78.1284L349.382 80.9041Z" fill="#FF7373" stroke="#293449" stroke-width="1"></path>
<path d="M289.452 77.6268C292.866 77.6268 295.634 74.8589 295.634 71.4445C295.634 68.0301 292.866 65.2622 289.452 65.2622C286.037 65.2622 283.27 68.0301 283.27 71.4445C283.27 74.8589 286.037 77.6268 289.452 77.6268Z" fill="#FF7373" stroke="#293449" stroke-width="1"></path>
<path opacity="0.5" d="M443.256 331.479C445.653 331.479 445.653 327.694 443.256 327.694C440.858 327.694 440.732 331.479 443.256 331.479Z" fill="#2249B3" stroke="#293449" stroke-width="1"></path>
<path opacity="0.5" d="M448.299 349.015C450.696 349.015 450.696 345.229 448.299 345.229C445.775 345.229 445.775 349.015 448.299 349.015Z" fill="#2249B3" stroke="#293449" stroke-width="1"></path>
<path opacity="0.5" d="M462.181 334.126C464.578 334.126 464.578 330.341 462.181 330.341C459.784 330.341 459.784 334.126 462.181 334.126Z" fill="#2249B3" stroke="#293449" stroke-width="1"></path>
<path opacity="0.5" d="M486.024 349.266C488.422 349.266 488.422 345.481 486.024 345.481C483.627 345.481 483.627 349.266 486.024 349.266Z" fill="#2249B3" stroke="#293449" stroke-width="1"></path>
<path opacity="0.5" d="M465.079 371.346C467.476 371.346 467.476 367.561 465.079 367.561C462.682 367.561 462.682 371.346 465.079 371.346Z" fill="#2249B3" stroke="#293449" stroke-width="1"></path>
<path opacity="0.5" d="M484.513 373.746C486.91 373.746 486.91 369.961 484.513 369.961C482.116 369.961 482.116 373.746 484.513 373.746Z" fill="#2249B3" stroke="#293449" stroke-width="1"></path>
<path opacity="0.5" d="M468.74 354.569C471.137 354.569 471.137 350.784 468.74 350.784C466.217 350.784 466.217 354.569 468.74 354.569Z" fill="#2249B3" stroke="#293449" stroke-width="1"></path>
<path opacity="0.5" d="M444.388 296.906C446.785 296.906 446.785 293.121 444.388 293.121C441.991 293.121 441.991 296.906 444.388 296.906Z" fill="#2249B3" stroke="#293449" stroke-width="1"></path>
<path opacity="0.5" d="M449.435 314.446C451.832 314.446 451.832 310.661 449.435 310.661C447.037 310.661 447.037 314.446 449.435 314.446Z" fill="#2249B3" stroke="#293449" stroke-width="1"></path>
<path opacity="0.5" d="M471.646 283.284C474.043 283.284 474.043 279.499 471.646 279.499C469.248 279.499 469.248 283.284 471.646 283.284Z" fill="#2249B3" stroke="#293449" stroke-width="1"></path>
<path opacity="0.5" d="M459.908 250.854C462.305 250.854 462.305 247.069 459.908 247.069C457.385 247.069 457.385 250.854 459.908 250.854Z" fill="#2249B3" stroke="#293449" stroke-width="1"></path>
<path opacity="0.5" d="M471.139 265.24C473.536 265.24 473.536 261.455 471.139 261.455C468.615 261.455 468.615 265.24 471.139 265.24Z" fill="#2249B3" stroke="#293449" stroke-width="1"></path>
<path opacity="0.5" d="M463.439 299.558C465.837 299.558 465.837 295.772 463.439 295.772C460.916 295.772 460.916 299.558 463.439 299.558Z" fill="#2249B3" stroke="#293449" stroke-width="1"></path>
<path opacity="0.5" d="M478.708 304.101C481.105 304.101 481.105 300.316 478.708 300.316C476.311 300.316 476.311 304.101 478.708 304.101Z" fill="#2249B3" stroke="#293449" stroke-width="1"></path>
<path opacity="0.5" d="M478.708 334.126C481.105 334.126 481.105 330.341 478.708 330.341C476.311 330.341 476.311 334.126 478.708 334.126Z" fill="#2249B3" stroke="#293449" stroke-width="1"></path>
<path opacity="0.5" d="M469.876 319.996C472.273 319.996 472.273 316.211 469.876 316.211C467.479 316.211 467.479 319.996 469.876 319.996Z" fill="#2249B3" stroke="#293449" stroke-width="1"></path>
<path opacity="0.5" d="M468.361 390.148C470.759 390.148 470.759 386.363 468.361 386.363C465.838 386.363 465.838 390.148 468.361 390.148Z" fill="#2249B3" stroke="#293449" stroke-width="1"></path>
<path opacity="0.5" d="M496.247 397.841C498.644 397.841 498.644 394.056 496.247 394.056C493.85 394.056 493.85 397.841 496.247 397.841Z" fill="#2249B3" stroke="#293449" stroke-width="1"></path>
<path opacity="0.5" d="M460.665 405.791C463.062 405.791 463.062 402.006 460.665 402.006C458.268 402.006 458.268 405.791 460.665 405.791Z" fill="#2249B3" stroke="#293449" stroke-width="1"></path>
<path opacity="0.5" d="M451.079 379.926C453.476 379.926 453.476 376.141 451.079 376.141C448.682 376.141 448.682 379.926 451.079 379.926Z" fill="#2249B3" stroke="#293449" stroke-width="1"></path>
<path opacity="0.5" d="M486.024 411.089C488.422 411.089 488.422 407.304 486.024 407.304C483.627 407.304 483.627 411.089 486.024 411.089Z" fill="#2249B3" stroke="#293449" stroke-width="1"></path>
<path opacity="0.5" d="M551.884 453.484C554.281 453.484 554.281 449.699 551.884 449.699C549.487 449.699 549.487 453.484 551.884 453.484Z" fill="#2249B3" stroke="#293449" stroke-width="1"></path>
<path opacity="0.5" d="M521.857 421.439C524.254 421.439 524.254 417.654 521.857 417.654C519.459 417.654 519.459 421.439 521.857 421.439Z" fill="#2249B3" stroke="#293449" stroke-width="1"></path>
<path opacity="0.5" d="M566.521 465.091C568.918 465.091 568.918 461.306 566.521 461.306C564.123 461.306 564.123 465.091 566.521 465.091Z" fill="#2249B3" stroke="#293449" stroke-width="1"></path>
<path opacity="0.5" d="M514.287 437.082C516.684 437.082 516.684 433.297 514.287 433.297C511.764 433.297 511.764 437.082 514.287 437.082Z" fill="#2249B3" stroke="#293449" stroke-width="1"></path>
<path opacity="0.5" d="M531.696 460.295C534.094 460.295 534.094 456.51 531.696 456.51C529.299 456.51 529.299 460.295 531.696 460.295Z" fill="#2249B3" stroke="#293449" stroke-width="1"></path>
<path opacity="0.5" d="M599.325 499.915C601.722 499.915 601.722 496.13 599.325 496.13C596.928 496.13 596.928 499.915 599.325 499.915Z" fill="#2249B3" stroke="#293449" stroke-width="1"></path>
<path opacity="0.5" d="M584.056 484.647C586.453 484.647 586.453 480.862 584.056 480.862C581.659 480.862 581.659 484.647 584.056 484.647Z" fill="#2249B3" stroke="#293449" stroke-width="1"></path>
<path opacity="0.5" d="M504.697 411.217C507.094 411.217 507.094 407.432 504.697 407.432C502.3 407.432 502.174 411.217 504.697 411.217Z" fill="#2249B3" stroke="#293449" stroke-width="1"></path>
<path opacity="0.5" d="M539.646 442.38C542.043 442.38 542.043 438.595 539.646 438.595C537.248 438.595 537.248 442.38 539.646 442.38Z" fill="#2249B3" stroke="#293449" stroke-width="1"></path>
</svg>
