<svg width="600" height="450" viewBox="0 0 800 600" fill="none" xmlns="http://www.w3.org/2000/svg" data-reactroot="">
<path d="M400 590C560.163 590 690 460.163 690 300C690 139.838 560.163 10 400 10C239.837 10 110 139.838 110 300C110 460.163 239.837 590 400 590Z" fill="#2249B3" stroke="#293449" stroke-width="1"></path>
<path d="M500.127 387.495C498.774 427.635 468.556 462.363 427.063 467.775C385.57 473.187 347.685 447.028 336.41 408.242L407.67 399.221L500.127 387.495Z" fill="#FF7373" stroke="#293449" stroke-width="1"></path>
<path d="M399.989 484.91C357.594 484.91 320.611 453.339 315.199 410.042L314.748 407.787L485.23 386.138V388.844C487.936 411.395 482.073 433.945 468.092 451.986C454.11 470.026 433.815 481.753 411.264 484.459C407.205 484.459 403.597 484.91 399.989 484.91ZM319.709 411.395C326.474 454.692 366.614 484.909 409.911 479.497C431.56 476.791 450.502 465.967 464.033 448.829C476.661 432.141 482.524 411.846 480.72 391.099L319.709 411.395Z" fill="#00376E" stroke="#293449" stroke-width="1"></path>
<path opacity="0.37" d="M536.652 382.984L499.669 387.494L407.663 399.22L336.403 408.24L279.124 415.456C259.731 417.711 247.554 397.867 259.731 383.886L281.831 358.178C304.381 331.569 314.754 298.193 310.695 265.27L305.734 224.679C302.126 196.716 317.911 177.322 342.717 166.047L340.462 147.556C339.109 137.634 346.325 128.613 355.796 127.711L390.975 123.201C400.897 121.848 409.918 129.064 410.82 138.536L413.075 157.027C440.135 161.537 459.98 176.42 463.588 204.383L468.549 244.974C472.608 277.898 491.1 307.665 519.513 327.509L547.476 346.903C562.81 358.178 556.045 380.729 536.652 382.984Z" fill="#B0C1E1" stroke="#293449" stroke-width="1"></path>
<path d="M265.593 418.162C256.572 418.162 248.454 413.652 244.395 405.985C240.336 398.318 241.238 389.298 247.101 382.081L269.652 355.923C292.653 329.313 302.576 296.389 298.516 263.014L293.104 221.522C289.496 194.461 303.027 172.812 330.538 160.184L328.283 143.046C327.381 137.633 329.185 132.221 332.342 127.711C335.499 123.201 340.46 120.495 345.873 120.044L381.502 115.534C386.915 114.632 392.327 116.436 396.837 119.593C401.347 122.75 404.053 127.711 404.504 133.123L406.759 150.262C436.526 155.674 455.017 173.264 458.174 200.324L463.586 241.817C467.645 274.741 486.137 304.057 514.551 324.352L542.964 344.196C550.632 349.608 553.789 358.178 551.534 366.747C549.278 376.218 541.16 382.983 530.787 384.336L268.299 417.711C267.848 418.162 266.946 418.162 265.593 418.162ZM385.111 120.044C384.208 120.044 383.757 120.044 382.855 120.044L347.226 124.554C343.166 125.005 339.107 127.26 336.401 130.418C333.695 133.575 332.793 138.085 333.244 142.144L335.95 162.89L334.597 163.341C315.655 171.459 294.006 188.147 298.065 220.62L303.478 262.113C307.988 296.389 297.163 330.666 273.26 358.178L250.709 384.336C245.748 389.749 244.846 396.965 248.454 403.279C252.062 410.044 260.18 414.103 268.75 412.75L531.238 379.375C539.807 378.473 546.572 372.61 548.376 364.943C550.181 358.178 547.474 351.413 541.611 347.354L513.198 327.509C483.431 306.763 464.488 276.094 459.978 241.817L454.566 200.324C450.507 167.851 425.25 157.478 404.955 153.87L403.151 153.419L400.445 132.673C399.994 128.613 397.739 124.554 394.582 121.848C391.876 120.946 388.268 120.044 385.111 120.044Z" fill="#00376E" stroke="#293449" stroke-width="1"></path>
</svg>
